PathFileType	4	(X/Y/Z)	pose_F01_0-89.trc
DataRate	CameraRate	NumFrames	NumMarkers	Units	OrigDataRate	OrigDataStartFrame	OrigNumFrames
30	30	8	21	m	30	74	89
Frame#	Time	CHip			RHip			RKnee			RAnkle			RBigToe			RSmallToe			RHeel			LHip			LKnee			LAnkle			LBigToe			LSmallToe			LHeel			Neck			Nose			RShoulder			RElbow			RWrist			LShoulder			LElbow			LWrist			
		X1	Y1	Z1	X2	Y2	Z2	X3	Y3	Z3	X4	Y4	Z4	X5	Y5	Z5	X6	Y6	Z6	X7	Y7	Z7	X8	Y8	Z8	X9	Y9	Z9	X10	Y10	Z10	X11	Y11	Z11	X12	Y12	Z12	X13	Y13	Z13	X14	Y14	Z14	X15	Y15	Z15	X16	Y16	Z16	X17	Y17	Z17	X18	Y18	Z18	X19	Y19	Z19	X20	Y20	Z20	X21	Y21	Z21	
74	2.466666666666667	-0.23595481446938707	1.8774750879681166	-0.6095082353156479	-0.2518418186451112	1.8756276267675145	-0.5330336223980476	-0.27089121309575637	1.7173920852065132	-0.4691551473282493													-0.21748549184202773	1.8804912963890847	-0.6829467314863422	-0.22786123455309193	1.7346130470646142	-0.7120412900148396				-0.44124918619919706	1.521230380701598	-0.9745484938546997	-0.4407813295869996	1.5239691070896415	-0.972902202689888				-0.2525573935000164	2.0566574531111623	-0.6285613753874921	-0.2246337810356209	2.1251404329380796	-0.6725467945250797	-0.27438229055636637	2.0514850199700243	-0.5308743484990126	-1.6608286528659488	1.8735637575272177	1.00959760941771	-0.3367974804507425	1.9253096568571202	-0.30519609943904097	-0.22991568091994352	2.0607647522849444	-0.7238593304346772	-0.16294691540424447	2.027016266696438	-0.7540707133921748	-0.08281871044216942	2.0561469344025847	-0.7595322293531408
75	2.5	-0.23794201473707083	1.8806695158588056	-0.5873199625633295	-0.255277350148886	1.8780981564191002	-0.5170210537560344	-0.27089121309575637	1.7173920852065132	-0.4691551473282493													-0.22186689721030203	1.8841128323443344	-0.6586734778927829	-0.22872030355788747	1.734406101487823	-0.7047510993629746				-0.44124918619919706	1.521230380701598	-0.9745484938546997	-0.4407813295869996	1.5239691070896415	-0.972902202689888				-0.25916090064003894	2.0557972673786136	-0.6052486466457607	-0.22983656163620253	2.1256079778600534	-0.6432014142775931	-0.2841994881337427	2.052418090200758	-0.511569004353532	-0.3134562321192452	1.9740831860648447	-0.3972453944078929	-0.3296825352241859	1.937857687539854	-0.23837022975971517	-0.2280491136030889	2.063158787420533	-0.6984193416014004	-0.1606307487935673	2.0333250562032945	-0.7462364177745037	-0.0687182244759492	2.0572576186999085	-0.7841711327989069
76	2.533333333333333	-0.2377408077671752	1.8766318268023652	-0.5692019682163678	-0.2508263872994741	1.875119464796861	-0.49458675612673764	-0.27089121309575637	1.7173920852065132	-0.4691551473282493													-0.22296051291186408	1.8824160744342056	-0.6440802531645939	-0.22631289292860235	1.7382834972100616	-0.6908947915928012				-0.44124918619919706	1.521230380701598	-0.9745484938546997	-0.4407813295869996	1.5239691070896415	-0.972902202689888				-0.25768788208788806	2.054406234075747	-0.5734396228809133	-0.2346421849029606	2.1253640570778236	-0.6139497408307747	-0.2818819904571969	2.0482357817533132	-0.47908088207979144	-0.3141068383514783	1.9789290613413903	-0.348084619677848	-0.32256758999762924	1.9504057182225878	-0.17154436008038937	-0.2309495962369507	2.0651867214281103	-0.6704361590090521	-0.1646550057502602	2.036720651928678	-0.7511850473047756	-0.08068243060889649	2.052293422443669	-0.8291783984571248
77	2.566666666666667	-0.24066147537543436	1.8799135947524808	-0.5499809980431463	-0.2563948407979987	1.8760782720618532	-0.47615127127909623	-0.27089121309575637	1.7173920852065132	-0.4691551473282493													-0.22318372135019712	1.8857933841153438	-0.6242385660102223	-0.22390548229931725	1.7421608929323005	-0.6770384838226277				-0.44124918619919706	1.521230380701598	-0.9745484938546997	-0.4407813295869996	1.5239691070896415	-0.972902202689888				-0.2568048531697726	2.0550563837578917	-0.5533649844383652	-0.23342050914172233	2.12443139805853	-0.5831560147345938	-0.28133930041449573	2.047298016109914	-0.452910590187424	-0.3116114990624664	1.982309222299338	-0.30587078430500697	-0.3305316386420901	1.965767987279771	-0.12554292492542746	-0.23167934944873067	2.0639596094706874	-0.653771842142316	-0.16867926270695308	2.040116247654061	-0.7561336768350477	-0.09264663674184376	2.04732922618743	-0.8741856641153427
78	2.6	-0.23660785394383385	1.8818543505591598	-0.5376127551328075	-0.2520244745199524	1.8765814671445022	-0.46333264713607397	-0.27089121309575637	1.7173920852065132	-0.4691551473282493													-0.21742686843349476	1.8875831989419254	-0.6137194411766248	-0.22319233775017022	1.7434464306997222	-0.6735292275297089				-0.44124918619919706	1.521230380701598	-0.9745484938546997	-0.4407813295869996	1.5239691070896415	-0.972902202689888				-0.2568694412573275	2.0551440004298036	-0.536217198538919	-0.2317027596967276	2.124524188321987	-0.5602408787577	-0.2820515809683441	2.0455716595049487	-0.43854954213187874	-0.3101505700714851	1.9840660639027965	-0.28100477350484093	-0.32744875309440674	1.9751686586417105	-0.11368417197872122	-0.23036505758750564	2.063822401949279	-0.6307734283637226	-0.17270351966364597	2.0435118433794446	-0.7610823063653197	-0.10461084287479104	2.0423650299311906	-0.9191929297735606
79	2.6333333333333333	-0.23600839624217265	1.8809984047460742	-0.5254259551939602	-0.25302944066188326	1.8743262606868758	-0.4488795354976067	-0.27089121309575637	1.7173920852065132	-0.4691551473282493													-0.2180696972126929	1.8867233214477588	-0.5967680571880403	-0.2255479808446169	1.7386937131494338	-0.6624927132642314				-0.44124918619919706	1.521230380701598	-0.9745484938546997	-0.4407813295869996	1.5239691070896415	-0.972902202689888				-0.2548281065482858	2.057064854840735	-0.5220337122613585	-0.22987224580687143	2.1238225578392114	-0.5457732657023433	-0.2796716806207192	2.046087105527375	-0.42430393270740335	-2.0855340953947867	1.9049606513149788	1.790745114295862	-0.3297189978751876	1.9801634429244186	-0.11463767635760433	-0.22872392264049055	2.0672437940776205	-0.6170372281115574	-0.18088711004056146	2.0431697718617525	-0.7487811538213762	-0.11224431795224188	2.0352348963653957	-0.9122038916720707
80	2.6666666666666665	-0.23133047117739147	1.8864834849877092	-0.5218693999955792	-0.24556800355799077	1.8813409282108795	-0.4527849848246066	-0.27089121309575637	1.7173920852065132	-0.4691551473282493													-0.2133888584171978	1.891876912831021	-0.6014118420848769	-0.21932408922035426	1.740759409722245	-0.6648987584315974				-0.44124918619919706	1.521230380701598	-0.9745484938546997	-0.4407813295869996	1.5239691070896415	-0.972902202689888				-0.2467812696481684	2.05719722219011	-0.5224844406582402	-0.22397998311646816	2.1264953444280073	-0.5349153419181639	-0.27166946836530975	2.048238225255904	-0.424218200886544	-0.29440757654489763	1.9831668888472576	-0.2721410309755278	-0.3280034323373391	1.9668874845754787	-0.11854656650693143	-0.2194653285196	2.0672801331228	-0.6227351802272872	-0.1801238480634475	2.034928462526099	-0.7548214047142862	-0.12810076790054886	2.014753754849398	-0.9101639607193848
81	2.7	-0.22412779198546465	1.887308661329882	-0.5254947692252737	-0.23836104181600912	1.884096407619375	-0.4565200003795807	-0.27089121309575637	1.7173920852065132	-0.4691551473282493													-0.20924282228256985	1.894799004428515	-0.5978532299026016	-0.21808002011974317	1.746756839133231	-0.6583544330668599				-0.44124918619919706	1.521230380701598	-0.9745484938546997	-0.4407813295869996	1.5239691070896415	-0.972902202689888				-0.24066914382407864	2.0585972100933674	-0.5287290334448274	-0.21998722456622885	2.127289845350929	-0.5307455336970117	-0.263923075739329	2.0500349221159007	-0.43324240843925294	-0.2832340424038779	1.9822572750980942	-0.2904815924383631	-0.30875831293397654	1.9567537832054676	-0.14735942879267191	-0.21426584254864123	2.0674432676417003	-0.6242445545640641	-0.17974778894593532	2.0287383752463017	-0.7521939758152355	-0.13661389560832055	1.9968679950853194	-0.9030189970044779
